<svg width="100" height="104" viewBox="0 0 100 104" fill="none" xmlns="http://www.w3.org/2000/svg">
<path d="M100 60.5276H74.9783" stroke="#1A4DBC" stroke-width="8" stroke-miterlimit="10"/>
<path d="M24.9783 60.5276H0" stroke="#1A4DBC" stroke-width="8" stroke-miterlimit="10"/>
<path d="M74.9783 47.4723V73.583C74.9862 75.1015 74.8699 76.6181 74.6307 78.116C73.6492 84.1921 70.6366 89.7087 66.1276 93.6872C61.6186 97.6656 55.9048 99.8485 50 99.8485C44.0952 99.8485 38.3814 97.6656 33.8724 93.6872C29.3634 89.7087 26.3508 84.1921 25.3692 78.116C25.0917 76.6228 24.9607 75.1039 24.9783 73.583V47.4723C24.966 45.9516 25.0969 44.4333 25.3692 42.9393C26.1688 38.2411 28.1868 33.8613 31.204 30.2759C34.2213 26.6904 38.1224 24.0363 42.4836 22.6018C46.8448 21.1674 51.4993 21.0075 55.9414 22.1394C60.3836 23.2714 64.4436 25.652 67.6803 29.0227C71.3726 32.8328 73.8069 37.7705 74.6307 43.1206C74.856 44.5594 74.9722 46.0145 74.9783 47.4723Z" stroke="#1A4DBC" stroke-width="8" stroke-miterlimit="10"/>
<path d="M4.17028 17.0553V20.7271C4.16274 26.5555 6.34634 32.1544 10.2519 36.3209C12.2436 38.4305 14.6172 40.1059 17.2348 41.2498C19.8524 42.3938 22.6617 42.9835 25.4996 42.9846H74.5004C80.137 43.0162 85.5564 40.7182 89.5743 36.5929C93.5753 32.4223 95.8253 26.7644 95.8297 20.8631V17.0553" stroke="#1A4DBC" stroke-width="8" stroke-miterlimit="10"/>
<path d="M74.6308 77.8894C80.1351 77.9042 85.4115 80.1848 89.3137 84.2357L89.6612 84.5984C91.5913 86.609 93.122 88.9974 94.1656 91.6267C95.2093 94.256 95.7452 97.0743 95.7428 99.9202V104" stroke="#1A4DBC" stroke-width="8" stroke-miterlimit="10"/>
<path d="M4.17029 104V100.056C4.16968 94.398 6.29005 88.964 10.0782 84.9157L10.556 84.4171C12.4853 82.3559 14.789 80.717 17.3326 79.5962C19.8761 78.4754 22.6082 77.8951 25.3692 77.8894" stroke="#1A4DBC" stroke-width="8" stroke-miterlimit="10"/>
<path d="M50 43.1206V99.6482" stroke="#1A4DBC" stroke-width="8" stroke-miterlimit="10"/>
<path d="M24.9783 43.1206H74.9783" stroke="#1A4DBC" stroke-width="8" stroke-miterlimit="10"/>
<path d="M54.3875 4C57.7056 4 60.8878 5.37547 63.234 7.82381C65.5802 10.2722 66.8983 13.5928 66.8983 17.0553V28.0707" stroke="#1A4DBC" stroke-width="8" stroke-miterlimit="10"/>
<path d="M33.3188 28.0707V17.0553C33.3187 13.6163 34.6189 10.316 36.937 7.87156C39.2551 5.42709 42.4039 4.03582 45.6994 4" stroke="#1A4DBC" stroke-width="8" stroke-miterlimit="10"/>
</svg>
