<svg width="50" height="50" viewBox="0 0 50 50" fill="none" xmlns="http://www.w3.org/2000/svg">
<path fill-rule="evenodd" clip-rule="evenodd" d="M45.8333 25C45.8333 36.5058 36.5058 45.8333 25 45.8333C13.4941 45.8333 4.16666 36.5058 4.16666 25C4.16666 13.4941 13.4941 4.16667 25 4.16667C36.5058 4.16667 45.8333 13.4941 45.8333 25ZM33.3964 18.6868C34.0067 19.297 34.0067 20.2863 33.3964 20.8965L22.9798 31.3131C22.3696 31.9233 21.3804 31.9233 20.7701 31.3131L16.6035 27.1465C15.9933 26.5363 15.9933 25.5471 16.6035 24.9369C17.2137 24.3267 18.203 24.3267 18.8132 24.9369L21.875 27.9985L26.5308 23.3427L31.1869 18.6868C31.7971 18.0766 32.7862 18.0766 33.3964 18.6868Z" fill="#1A4DBC"/>
</svg>
