<svg width="100" height="100" viewBox="0 0 100 100" fill="none" xmlns="http://www.w3.org/2000/svg">
<path d="M92.9561 24.791C92.9561 16.7656 82.209 10.7148 67.9561 10.7148C53.7031 10.7148 42.9561 16.7656 42.9561 24.791C42.9561 24.8623 42.9717 24.9297 42.9736 25H42.9561V35.7139H50.0986V34.8291C54.5684 37.3496 60.8223 38.8652 67.9561 38.8652C74.5371 38.8652 80.3516 37.5635 84.7246 35.3848C85.4023 36.0859 85.8135 36.7832 85.8135 37.3945C85.8135 40.1533 78.6914 44.3262 67.9561 44.3262H60.8154V51.4687H67.9561C74.5381 51.4687 80.3545 50.167 84.7275 47.9873C85.4062 48.6875 85.8125 49.3848 85.8125 49.999C85.8125 52.7598 78.6904 56.9326 67.9551 56.9326L65.4268 56.9443C63.873 56.958 62.3682 56.9727 60.9014 56.9336L60.7266 64.0732C61.5117 64.0928 62.3066 64.0996 63.1172 64.0996C63.8916 64.0996 64.6797 64.0947 65.4805 64.0879L67.9551 64.0762C74.541 64.0762 80.3594 62.7725 84.7334 60.5908C85.4141 61.2969 85.8115 61.998 85.8115 62.6045C85.8115 65.3652 78.6895 69.5381 67.9541 69.5381H60.8135V76.6807H67.9541C74.54 76.6807 80.3574 75.377 84.7324 73.1953C85.4141 73.9004 85.8115 74.6016 85.8115 75.209C85.8115 77.9697 78.6895 82.1426 67.9541 82.1426H60.8135V89.2852H67.9541C82.207 89.2852 92.9541 83.2344 92.9541 75.209C92.9541 75.1426 92.9453 75.0674 92.9434 75H92.9541V25H92.9365C92.9395 24.9297 92.9561 24.8613 92.9561 24.791ZM50.0986 24.791C50.0986 22.0303 57.2207 17.8574 67.9561 17.8574C78.6914 17.8574 85.8135 22.0303 85.8135 24.791C85.8135 27.5498 78.6914 31.7227 67.9561 31.7227C57.2207 31.7227 50.0986 27.5498 50.0986 24.791Z" fill="#1A4DBC"/>
<path d="M32.2412 35.7139C17.9883 35.7139 7.24121 41.7646 7.24121 49.79C7.24121 49.8613 7.25684 49.9287 7.25879 49.999H7.24121V74.999C7.24121 83.0244 17.9883 89.0752 32.2412 89.0752C46.4941 89.0752 57.2412 83.0244 57.2412 74.999V50H57.2236C57.2256 49.9297 57.2412 49.8613 57.2412 49.791C57.2412 41.7656 46.4941 35.7139 32.2412 35.7139ZM14.3838 62.3955C14.3838 61.7783 14.7871 61.082 15.4658 60.3818C19.8398 62.5625 25.6572 63.8652 32.2412 63.8652C38.8223 63.8652 44.6367 62.5635 49.0098 60.3848C49.6875 61.0859 50.0986 61.7832 50.0986 62.3945C50.0986 65.1533 42.9766 69.3262 32.2412 69.3262C21.5059 69.3262 14.3838 65.1543 14.3838 62.3955ZM32.2412 42.8574C42.9766 42.8574 50.0986 47.0303 50.0986 49.791C50.0986 52.5498 42.9766 56.7227 32.2412 56.7227C21.5059 56.7227 14.3838 52.5498 14.3838 49.791C14.3838 47.0303 21.5059 42.8574 32.2412 42.8574ZM32.2412 81.9336C21.5059 81.9336 14.3838 77.7607 14.3838 75C14.3838 74.3857 14.791 73.6885 15.4687 72.9883C19.8428 75.168 25.6582 76.4707 32.2412 76.4707C38.8232 76.4707 44.6397 75.1689 49.0127 72.9893C49.6914 73.6895 50.0977 74.3867 50.0977 75.001C50.0986 77.7607 42.9766 81.9336 32.2412 81.9336Z" fill="#1A4DBC"/>
</svg>
