<svg width="55" height="55" viewBox="0 0 55 55" fill="none" xmlns="http://www.w3.org/2000/svg">
<rect x="1" y="1" width="53" height="53" rx="7" fill="#1A4DBC"/>
<rect x="1" y="1" width="53" height="53" rx="7" stroke="#1A4DBC" stroke-width="2"/>
<path d="M10.58 16.484H16.98V38.5H10.58V16.484ZM18.324 16.484H26.452V21.38H18.324V16.484ZM18.324 24.932H24.948V29.828H18.324V24.932ZM18.324 33.604H26.452V38.5H18.324V33.604ZM37.5948 16.26C37.7654 16.2387 38.0321 16.228 38.3948 16.228H39.2268C40.6561 16.228 42.0534 16.3347 43.4188 16.548C44.1228 16.6547 44.6668 16.7613 45.0508 16.868V21.444C44.7308 21.4227 44.1974 21.3693 43.4508 21.284C42.4481 21.1773 41.5734 21.124 40.8268 21.124C39.9948 21.124 39.3228 21.156 38.8108 21.22C38.3201 21.2627 37.9148 21.348 37.5948 21.476V16.26ZM39.2268 38.756C37.0934 38.756 35.3974 38.5747 34.1388 38.212C32.9014 37.828 31.9628 37.1987 31.3228 36.324C30.7041 35.492 30.2774 34.3933 30.0428 33.028C29.8294 31.6413 29.7228 29.796 29.7228 27.492C29.7228 25.4653 29.7974 23.8227 29.9468 22.564C30.1174 21.3053 30.4161 20.2493 30.8428 19.396C31.2908 18.5213 31.9414 17.8493 32.7948 17.38C33.6694 16.8893 34.8214 16.5587 36.2508 16.388V27.492C36.2508 28.6867 36.2721 29.8387 36.3148 30.948C36.3574 31.8013 36.5174 32.4413 36.7948 32.868C37.0934 33.2947 37.5521 33.5613 38.1708 33.668C38.7681 33.796 39.6534 33.86 40.8268 33.86C42.0428 33.86 43.0774 33.8067 43.9308 33.7C44.2721 33.6787 44.6881 33.6253 45.1788 33.54V38.18C44.1334 38.4147 42.9494 38.5747 41.6268 38.66C40.9014 38.724 40.1014 38.756 39.2268 38.756Z" fill="white"/>
</svg>
