<svg width="100" height="100" viewBox="0 0 100 100" fill="none" xmlns="http://www.w3.org/2000/svg">
<g filter="url(#filter0_d_11_12)">
<path d="M16.6667 58.3333C16.6667 53.9558 17.5289 49.6213 19.204 45.5771C20.8792 41.533 23.3345 37.8584 26.4298 34.7631C29.5251 31.6678 33.1997 29.2125 37.2439 27.5373C41.2881 25.8622 45.6225 25 50 25C54.3775 25 58.7121 25.8622 62.7562 27.5374C66.8004 29.2125 70.475 31.6678 73.5704 34.7631C76.6654 37.8584 79.1208 41.533 80.7958 45.5771C82.4712 49.6213 83.3333 53.9558 83.3333 58.3333" stroke="#1A4DBC" stroke-width="10" stroke-linejoin="round"/>
<path d="M41.6667 62.5C41.6667 61.4058 41.8821 60.3221 42.3008 59.3108C42.72 58.3 43.3337 57.3813 44.1075 56.6075C44.8812 55.8338 45.8 55.22 46.8108 54.8008C47.8221 54.3821 48.9058 54.1667 50 54.1667C51.0942 54.1667 52.1779 54.3821 53.1892 54.8008C54.2 55.22 55.1187 55.8338 55.8925 56.6075C56.6662 57.3813 57.2804 58.3 57.6992 59.3108C58.1179 60.3221 58.3333 61.4058 58.3333 62.5" stroke="#1A4DBC" stroke-width="10" stroke-linejoin="round"/>
<path d="M54.1667 54.1667L62.5 41.6667" stroke="#1A4DBC" stroke-width="10" stroke-linejoin="round"/>
<path d="M83.3333 58.3333V62.5C83.3333 64.8012 81.4679 66.6667 79.1667 66.6667H20.8333C18.5322 66.6667 16.6667 64.8012 16.6667 62.5V58.3333" stroke="#1A4DBC" stroke-width="10" stroke-linejoin="round"/>
</g>
<defs>
<filter id="filter0_d_11_12" x="-4" y="0" width="108" height="108" filterUnits="userSpaceOnUse" color-interpolation-filters="sRGB">
<feFlood flood-opacity="0" result="BackgroundImageFix"/>
<feColorMatrix in="SourceAlpha" type="matrix" values="0 0 0 0 0 0 0 0 0 0 0 0 0 0 0 0 0 0 127 0" result="hardAlpha"/>
<feOffset dy="4"/>
<feGaussianBlur stdDeviation="2"/>
<feComposite in2="hardAlpha" operator="out"/>
<feColorMatrix type="matrix" values="0 0 0 0 0 0 0 0 0 0 0 0 0 0 0 0 0 0 0.25 0"/>
<feBlend mode="normal" in2="BackgroundImageFix" result="effect1_dropShadow_11_12"/>
<feBlend mode="normal" in="SourceGraphic" in2="effect1_dropShadow_11_12" result="shape"/>
</filter>
</defs>
</svg>
