<svg width="50" height="50" viewBox="0 0 50 50" fill="none" xmlns="http://www.w3.org/2000/svg">
<path d="M19.0691 11.2675C21.7079 6.53361 23.0273 4.16667 25 4.16667C26.9727 4.16667 28.2921 6.53358 30.9308 11.2674L31.6135 12.4921C32.3635 13.8374 32.7383 14.51 33.3231 14.9538C33.9077 15.3976 34.6356 15.5623 36.0919 15.8918L37.4177 16.1917C42.5419 17.3512 45.1042 17.9309 45.7137 19.8911C46.3233 21.8513 44.5767 23.894 41.0831 27.979L40.1794 29.0358C39.1867 30.1967 38.6902 30.7771 38.4669 31.4952C38.2437 32.2133 38.3187 32.9877 38.4687 34.5367L38.6054 35.9467C39.1335 41.3971 39.3977 44.1223 37.8019 45.3338C36.2058 46.5452 33.8069 45.4406 29.009 43.2317L27.7677 42.66C26.4044 42.0323 25.7227 41.7183 25 41.7183C24.2773 41.7183 23.5956 42.0323 22.2323 42.66L20.991 43.2317C16.1931 45.4406 13.7941 46.5452 12.1982 45.3338C10.6023 44.1223 10.8664 41.3971 11.3946 35.9467L11.5312 34.5367C11.6813 32.9877 11.7563 32.2133 11.533 31.4952C11.3097 30.7771 10.8134 30.1967 9.82066 29.0358L8.91687 27.979C5.42343 23.894 3.6767 21.8513 4.28629 19.8911C4.89587 17.9309 7.45803 17.3512 12.5824 16.1917L13.9081 15.8918C15.3643 15.5623 16.0923 15.3976 16.677 14.9538C17.2616 14.51 17.6365 13.8374 18.3864 12.4921L19.0691 11.2675Z" fill="#FEB61B"/>
</svg>
